<svg width="200" height="140" viewBox="0 0 200 140" fill="none" xmlns="http://www.w3.org/2000/svg">
<path d="M112.109 8.06641H117.773L121.094 8.47656L124.414 9.16016L128.125 10.3906L130.469 11.4844L132.422 12.5781L133.594 13.2617V13.5352H133.984L135.352 14.6289L137.109 16.2695L138.867 18.457L139.648 19.1406L142.578 19.9609L145.703 21.0547L148.242 22.2852L150.391 23.5156L152.148 24.7461L154.102 26.5234L156.055 28.8477L157.617 31.582L158.398 33.9062L158.789 36.5039V38.0078L158.203 41.1523L157.031 43.8867L155.273 46.4844L153.711 48.125L152.344 49.3555L151.953 49.7656H151.562L151.172 50.3125L148.828 51.8164L145.898 53.1836L142.773 54.2773L139.648 55.0977L136.133 55.6445L134.57 55.7812H129.297L125.781 55.3711L123.047 54.8242L122.07 55.5078L116.992 59.6094L115.234 60.9766L113.477 62.4805L111.328 64.1211L109.961 65.2148L107.812 66.9922L105.859 68.4961L104.102 70L101.953 71.6406L100.195 73.1445L98.2422 74.6484L96.4844 76.1523L94.1406 77.9297L92.3828 79.4336L90.2344 81.0742L88.8672 82.168L86.7188 83.9453L84.7656 85.4492L83.0078 86.9531L80.8594 88.5938L79.1016 90.0977L76.9531 91.7383L75.1953 93.2422L73.0469 94.8828L71.2891 96.3867L68.9453 98.1641L68.1641 98.8477L68.3594 99.668L69.7266 102.129L70.7031 105L70.8984 106.094V109.375L70.1172 112.52L68.9453 114.98L66.7969 117.852L65.0391 119.492L63.2812 120.859L61.5234 122.09L58.5938 123.594L55.2734 124.824L52.1484 125.645L48.8281 126.191L45.5078 126.465H42.5781L38.2812 126.055L34.9609 125.371L31.8359 124.414L29.2969 123.32L26.7578 121.953L23.6328 119.766L21.6797 117.852L20.1172 115.938L19.7266 115.391L16.6016 114.57L12.8906 113.203L10.1562 111.836L7.61719 110.195L5.46875 108.418L3.32031 105.957L1.95312 103.77L1.17188 101.992L0.585938 100.078L0.390625 98.8477V95.7031L0.976562 93.1055L1.95312 90.918L2.92969 89.2773L4.29688 87.5L6.05469 85.7227L8.20312 84.082L9.76562 82.9883L12.6953 81.4844L16.7969 79.9805L20.3125 79.1602L23.4375 78.75L25.3906 78.6133H28.5156L32.8125 79.0234L35.1562 79.4336L36.3281 79.5703L38.6719 77.6562L40.8203 76.0156L42.5781 74.5117L44.7266 72.8711L46.4844 71.3672L48.4375 69.8633L49.8047 68.7695L52.1484 66.8555L53.9062 65.4883L55.2734 64.3945L57.6172 62.4805L58.9844 61.3867L60.7422 60.0195L62.5 58.5156L64.2578 57.1484L65.625 56.0547L70.3125 52.2266L72.4609 50.5859L74.2188 49.082L76.5625 47.3047L78.3203 45.8008L80.8594 43.75L82.8125 42.2461L84.5703 40.7422L86.9141 38.9648L88.6719 37.4609L90.625 35.957L91.0156 35.5469L90.8203 34.8633L89.4531 32.5391L88.4766 29.8047L88.2812 28.8477V24.6094L88.8672 22.2852L89.8438 20.0977L91.7969 17.2266L93.3594 15.5859L95.1172 14.082L97.2656 12.5781L99.8047 11.2109L102.734 9.98047L105.859 9.02344L109.375 8.33984L112.109 8.06641ZM112.305 13.5352L108.984 14.082L106.641 14.7656L104.492 15.5859L102.539 16.6797L101.367 17.3633V17.6367H100.977L99.0234 19.4141L97.4609 21.4648L96.4844 23.5156L96.0938 25.0195V28.5742L96.875 30.8984L98.2422 33.0859L99.6094 34.7266L99.8047 35.1367V36.3672L98.8281 37.5977L96.2891 39.6484L93.9453 41.5625L92.1875 42.9297L90.4297 44.4336L88.2812 46.0742L86.5234 47.5781L85.7422 48.125V48.3984H85.3516L83.5938 49.9023L81.4453 51.543L79.6875 53.0469L77.5391 54.6875L75.7812 56.1914L73.8281 57.6953L72.0703 59.1992L69.7266 60.9766L67.9688 62.4805L65.8203 64.1211L64.6484 65.0781V65.3516H64.2578L62.5 66.8555L60.3516 68.4961L58.5938 70L56.8359 71.3672L55.0781 72.8711L52.9297 74.5117L51.5625 75.6055L49.2188 77.5195L47.4609 78.8867L46.0938 79.9805L41.4062 83.8086L39.8438 85.0391L38.2812 85.5859H36.3281L33.2031 84.7656L30.0781 84.2188L28.7109 84.082H25.3906L22.0703 84.4922L18.9453 85.3125L16.2109 86.4062L13.4766 88.0469L11.7188 89.5508L10.1562 91.3281L9.17969 92.9688L8.39844 94.8828L8.20312 95.7031V98.8477L8.78906 100.898L9.96094 103.086L11.5234 105L13.2812 106.504L14.8438 107.461L17.3828 108.691L20.1172 109.648L24.8047 110.742L25.9766 111.699L28.125 114.844L30.0781 116.621L32.0312 117.988L34.9609 119.355L37.5 120.176L40.0391 120.723L42.5781 120.996H46.0938L49.2188 120.586L52.3438 119.766L55.2734 118.535L57.8125 117.031L59.7656 115.391L61.5234 113.203L62.5 111.289L63.0859 108.965V106.641L62.5 104.316L61.3281 102.129L59.375 99.5312L59.1797 98.4375L59.9609 97.207L61.7188 95.7031L63.8672 94.0625L66.0156 92.2852L68.3594 90.3711L70.3125 88.8672L72.0703 87.3633L74.4141 85.5859L76.1719 84.082L78.125 82.5781L79.4922 81.4844L84.1797 77.6562L86.1328 76.1523L87.8906 74.6484L90.0391 73.0078L91.7969 71.5039L93.9453 69.8633L95.3125 68.7695L97.6562 66.8555L99.4141 65.4883L101.172 63.9844L103.125 62.4805L104.883 60.9766L107.227 59.1992L108.984 57.6953L111.133 56.0547L112.891 54.5508L115.039 52.9102L116.797 51.4062L119.141 49.6289L120.117 49.082L121.094 48.8086L123.047 48.9453L126.172 49.7656L128.32 50.1758L129.688 50.3125H134.57L137.891 49.7656L140.43 49.082L142.969 47.9883L145.117 46.7578L146.484 45.8008L148.438 43.8867L150 41.4258L150.781 39.1016L150.977 36.5039L150.391 33.9062L149.414 31.8555L147.852 29.8047L145.703 27.8906L143.945 26.7969L141.211 25.5664L138.086 24.6094L134.766 23.9258L133.398 23.1055L131.445 20.2344L129.883 18.5938L128.125 17.2266L126.172 15.9961L124.023 15.0391L120.898 14.082L117.578 13.5352H112.305Z" fill="#CCD93D"/>
<path d="M147.656 63.5742H153.711L158.789 63.9844L163.477 64.668L168.75 65.8984L173.438 67.4023L177.344 69.043L180.078 70.4102L183.203 72.1875L185.938 73.9648L187.305 75.0586L189.453 76.8359L191.992 79.4336L193.75 81.4844L196.094 84.9023L197.852 88.5938L198.828 91.4648L199.414 94.4727L199.609 96.1133V99.8047L199.023 103.223L197.852 106.914L196.875 109.102L195.312 111.836L192.773 115.254L190.82 117.305L188.477 119.492L186.328 121.133L186.133 121.406H185.742L185.352 121.953L182.812 123.594L180.078 125.098L177.344 126.465L173.633 127.969L169.141 129.473L163.867 130.703L158.594 131.523L153.125 131.934H148.047L142.578 131.523L137.5 130.703L132.812 129.609L127.93 127.969L125.781 127.148L123.047 125.918L119.922 124.277L117.578 122.773L116.016 121.816L113.672 120.039L111.523 118.125L109.57 116.211L107.227 113.34L105.469 110.742L103.516 106.641L102.539 103.496L101.953 100.352V95.1562L102.734 91.1914L103.516 88.7305L105.078 85.4492L106.445 83.2617L108.203 80.9375L110.547 78.3398L112.891 76.1523L117.188 72.8711L119.141 71.6406L122.656 69.7266L126.758 67.9492L129.883 66.8555L133.203 65.7617L137.305 64.8047L141.406 64.1211L145.508 63.7109L147.656 63.5742ZM147.656 69.043L143.164 69.4531L138.477 70.2734L134.766 71.2305L131.641 72.3242L127.93 73.8281V74.2383L131.445 76.0156L134.961 77.3828L138.477 78.4766L142.188 79.2969L146.484 79.8438L148.242 79.9805H153.32L157.422 79.5703L161.914 78.75L165.234 77.793L168.359 76.6992L171.094 75.4688L173.633 74.2383L173.242 73.6914L169.141 72.0508L165.234 70.8203L161.523 70L157.227 69.3164L153.516 69.043H147.656ZM121.289 77.6562L118.945 79.5703L117.188 81.2109L115.43 83.125L113.086 86.2695L111.328 89.6875L110.352 92.5586L109.961 94.0625L109.766 95.5664V99.9414L110.352 102.949L111.328 105.82L112.5 108.281L114.062 110.742L116.211 113.34L118.945 115.938L121.484 117.852L122.266 117.578L124.023 116.621L126.758 115.254L129.688 114.023L132.617 112.93L136.523 111.836L140.43 111.016L144.336 110.469L148.242 110.195H153.125L158.008 110.605L161.719 111.152L166.992 112.383L171.875 114.023L175.586 115.664L178.125 117.031L179.688 117.852L180.469 117.578L182.422 116.074L184.766 113.887L186.523 111.836L188.086 109.785L189.648 106.914L190.82 104.043L191.602 100.762L191.797 98.5742V96.6602L191.406 93.7891L190.43 90.3711L189.453 88.1836L187.891 85.4492L185.547 82.4414L183.594 80.5273L182.031 79.1602L180.273 77.6562L179.297 77.793L176.172 79.5703L172.461 81.2109L168.75 82.5781L163.672 83.9453L158.789 84.7656L154.883 85.1758L152.344 85.3125H148.828L144.727 85.0391L139.844 84.3555L134.57 83.125L131.055 82.0312L127.344 80.5273L124.023 78.8867L121.875 77.6562H121.289ZM148.047 115.527L143.75 115.938L139.453 116.758L135.938 117.715L132.031 119.219L128.711 120.859L127.93 121.27V121.68L131.641 123.184L135.352 124.414L140.039 125.508L143.359 126.055L148.047 126.465H153.711L159.18 125.918L162.891 125.234L166.602 124.277L169.922 123.184L173.242 121.816L173.633 121.406L172.266 120.586L169.336 119.219L165.82 117.852L161.328 116.621L156.641 115.801L153.32 115.527H148.047Z" fill="#CCD93D"/>
</svg>
