<?xml version="1.0" encoding="UTF-8"?>
<svg version="1.1" viewBox="0 0 2048 1433" width="200" height="140" xmlns="http://www.w3.org/2000/svg">
<path transform="translate(1821,205)" d="m0 0 33 1 25 2 23 4 14 5 10 5 10 9 8 10 12 18 12 21 11 23 11 28 9 25 8 27 9 36 9 42 10 56 8 54 5 45v208l-9 72-15 82-10 45-8 29-13 41-14 35-7 16-8 16-12 20-10 14-13 14-11 7-19 5-21 3-29 2h-68l-42-3-38-5-33-6-30-7-56-15-37-12-42-16-36-15-25-11-30-15-23-11-16-9-21-12-26-15-19-12-22-14-17-11-19-12-43-30-9-4h-351l-21 14-11 8-14 10-44 29-23 14-21 13-29 16-24 13-27 14-29 14-29 13-27 11-42 16-43 14-37 10-33 8-35 7-40 6-36 4-33 2h-48l-30-2-23-3-12-3-14-7-9-9-13-17-10-16-12-23-11-24-12-31-8-24-12-40-9-41-7-35-9-54-7-56-2-17v-216l9-66 6-41 8-45 11-48 10-35 8-26 13-35 12-26 11-22 12-19 9-11 11-11 14-7 13-4 25-4 36-2h36l38 2 31 3 28 4 45 8 48 11 24 7 36 12 35 12 27 11 16 7 26 11 23 11 15 8 23 11 27 15 22 12 18 11 17 11 16 10 17 11 24 16 16 11 10 7 15 11 10 4h332l14-1 8-3 10-7 18-12 20-14 33-22 19-12 23-14 17-10 24-13 14-8 23-12 23-11 16-8 15-7 29-12 26-11 34-12 46-15 60-15 42-8 35-5 41-4zm-1618 119-9 1-7 9-8 15-13 34-8 24-8 29-8 34-9 49-5 38-4 38-2 28-2 49v94l2 50 3 34 6 50 6 36 8 41 9 36 11 35 10 26 11 23 7 9 5 2h25l40-2 46-5 31-5 51-11 30-9 46-15 34-12 56-25 23-11 19-10 20-10 27-16 22-12 20-13 19-12 27-18 12-9 14-9 3-3 1-3 1-12-1-110-190-1-24-1-10-3-10-7-6-5-8-10-6-12-3-12v-17l3-13 4-9 6-9 9-8 16-10 9-2h188l21-1 1-1v-123l-11-8-19-13-15-11-22-14-40-25-20-11-24-14-39-20-38-18-38-16-33-12-43-14-29-8-60-13-27-4-35-4-32-2zm1606 1-35 2-38 4-37 6-56 13-37 11-30 10-36 14-28 12-53 25-19 10-27 15-26 15-22 14-19 12-21 14-17 12-22 15-4 3v125h200l17 1 12 6 16 13 7 11 5 13 3 14-2 14-5 12-6 11-11 12-11 6-9 3-6 1-27 1-183 1 1 123 5 6 11 7 20 14 18 12 19 12 23 15 49 28 23 12 31 16 29 13 25 11 15 6 30 11 43 14 26 7 36 8 36 7 39 5 35 3 38 2h13l7-3 7-9 6-10 7-15 14-41 10-34 5-21 10-56 6-49 5-50 2-39 1-31v-66l-3-70-4-45-6-52-6-36-8-38-6-21-9-28-7-21-8-21-8-17-6-8-7-2zm-890 238-29 1v305h267v-305l-14-1z" fill="#D1DB48"/>
</svg>
