<svg width="200" height="140" viewBox="0 0 200 140" fill="none" xmlns="http://www.w3.org/2000/svg">
<path d="M46.875 7.38281H50.7812L53.9062 7.79297L57.0312 8.61328L59.5703 9.70703L61.7188 10.9375L63.6719 12.4414L65.2344 14.2188L66.4062 15.9961L67.1875 18.1836L67.3828 19.2773V21.3281L66.7969 23.7891L65.8203 25.5664L64.6484 27.207L63.0859 28.7109L62.1094 29.5312L61.1328 30.0781H60.7422L61.5234 30.625L63.6719 31.7188L81.6406 44.2969L82.0312 44.4336V44.707L82.8125 44.9805L84.9609 45.6641L93.9453 47.9883L102.344 50.1758L105.859 51.2695L107.617 52.2266L109.375 53.457L110.742 55.0977L111.523 56.7383L111.719 57.4219V59.4727L110.938 61.6602L110.352 62.6172L110.547 63.3008L113.867 65.2148L116.992 66.8555L120.508 68.6328L124.805 70.6836L128.516 72.3242L131.836 73.6914L135.352 75.0586L141.016 77.1094L146.094 78.75L149.805 79.8438L150.391 80.1172L150.195 79.8438V75.0586L150.781 73.1445L151.953 71.0938L153.516 69.4531L155.273 68.0859L157.617 66.8555L160.547 65.8984L163.867 65.3516L166.406 65.2148H171.094L175 65.625L178.125 66.3086L181.445 67.5391L183.398 68.6328L184.961 69.5898L186.719 71.0938L187.891 72.0508L189.258 72.5977L192.969 73.0078L195.117 73.5547L197.266 74.6484L198.828 76.1523L199.805 77.6562L200 78.2031V83.8086L199.023 86.1328L197.656 87.7734L195.898 89.2773L193.555 90.5078L191.406 91.1914L189.453 91.6016L187.109 91.7383L187.695 92.9688L188.281 95.7031L188.477 98.1641L188.086 101.035L187.109 103.77L185.938 105.957L184.18 108.281L183.398 109.375L183.594 110.332L185.156 112.52L187.891 116.211L190.234 119.219L192.188 122.09L192.773 124.004V125.098L192.188 127.012L190.625 129.199L188.867 130.566L187.5 131.387L184.961 132.207L182.422 132.617H180.078L176.953 132.07L174.805 131.25L172.852 130.02L171.68 129.062L168.75 125.918L162.5 119.082L160.742 117.168H139.453L138.672 117.988L136.523 119.766L135.352 120.449L135.156 120.996L136.133 123.594V125.234L135.547 127.148L134.766 128.379L133.594 129.609L132.422 130.566L130.469 131.523L128.32 132.207L125.781 132.617H123.633L120.898 132.207L118.555 131.387L116.602 130.293L115.039 128.926L113.867 127.285L112.305 123.594L110.742 119.355V118.262L113.086 112.793V111.836L111.328 109.512L109.961 106.777L109.375 104.316V101.172L109.961 98.8477L110.156 97.6172L107.227 96.9336L104.492 95.9766L101.953 94.7461L100 93.5156L98.4375 92.4219L96.4844 90.5078L94.9219 88.457L93.9453 86.543L93.75 86.1328V84.4922L94.3359 83.6719L95.8984 82.7148L96.4844 82.5781H98.6328L99.8047 82.9883L100.977 83.9453L102.734 86.9531L104.102 88.457L106.055 89.9609L108.008 90.918L111.133 92.0117L113.281 92.4219H114.453L117.578 90.2344L120.312 88.8672L123.242 87.7734L126.758 86.9531L130.078 86.543L148.242 86.4062L150.977 86.2695L151.172 86.1328L147.852 85.3125L142.773 83.8086L136.328 81.7578L131.836 80.1172L127.93 78.6133L122.461 76.2891L120.117 75.1953L115.234 72.8711L111.133 70.6836L108.789 69.4531L106.25 67.9492L104.102 66.7188L102.148 66.8555L100.977 66.9922H98.2422L95.1172 66.4453L71.6797 60.293L71.2891 60.1562L71.0938 71.3672L74.0234 75.8789L77.3438 80.8008L80.2734 85.3125L83.5938 90.2344L86.3281 94.4727L87.3047 96.7969L90.8203 109.512L93.75 119.766L94.3359 122.363V123.73L93.9453 125.371L92.9688 127.148L91.7969 128.516L89.6484 130.156L87.1094 131.387L84.5703 132.07L82.6172 132.344H78.5156L76.1719 131.934L73.4375 130.977L71.4844 129.883V129.609L70.8984 129.473L69.3359 127.969L68.5547 126.738V125.645L69.3359 124.551L70.7031 123.73L71.875 123.457L73.6328 123.594L74.8047 124.004L76.3672 125.234L77.3438 126.055L79.2969 126.738L81.4453 126.875L83.7891 126.328L85.1562 125.508L86.1328 124.141V121.68L81.6406 105.82L79.2969 97.4805L78.125 95.293L75 90.6445L72.0703 86.1328L68.75 81.2109L65.8203 76.6992L63.2812 72.8711L63.0859 72.7344H37.3047L35.1562 80.3906L32.4219 90.5078L30.6641 96.7969L29.8828 98.3008L26.7578 102.266L24.2188 105.41L21.6797 108.691L19.1406 111.836L16.2109 115.527L13.4766 118.945L11.5234 121.406L11.1328 122.227V124.004L12.3047 125.645L13.8672 126.465L15.4297 126.875H17.7734L19.5312 126.328L20.8984 125.508L22.8516 123.184L24.4141 121.27L25.5859 119.766L28.125 116.484L30.6641 113.34L33.7891 109.375L35.7422 107.051L36.9141 105.547L39.4531 102.266L40.8203 100.352L42.1875 96.9336L46.4844 85.1758L48.0469 81.0742L49.0234 79.9805L50 79.4336L50.9766 79.1602H52.5391L54.1016 79.5703L55.4688 80.6641L57.4219 83.5352L61.5234 89.2773L63.6719 92.4219L66.9922 97.0703L68.5547 99.5312L69.1406 101.445L68.9453 102.676L67.9688 103.77L66.9922 104.316L65.8203 104.59H64.4531L62.8906 104.18L61.7188 103.223L60.3516 100.352L58.0078 96.9336L56.4453 94.7461L54.2969 91.6016L53.125 90.0977L52.5391 91.3281L48.8281 101.309L47.8516 103.086L46.4844 105L43.9453 108.145L35.1562 119.219L32.4219 122.637L31.25 124.004L30.0781 125.508L28.125 127.969L26.1719 129.746L24.0234 130.977L21.2891 131.934L19.1406 132.344L17.9688 132.48H14.6484L11.7188 131.934L8.98438 130.977L6.64062 129.473L5.46875 128.516L4.29688 127.148L3.32031 125.234L3.125 124.414V121.816L3.71094 120.176L4.6875 118.535L7.22656 115.254L9.96094 111.973L11.1328 110.332L13.4766 107.461L16.6016 103.496L18.5547 101.035L21.2891 97.6172L22.6562 95.7031L23.4375 93.3789L25.9766 84.2188L29.1016 72.7344L27.1484 71.3672L26.5625 70.1367L26.3672 66.7188L23.6328 70.4102L21.6797 72.5977L19.9219 73.9648L17.9688 74.9219L15.625 75.6055L14.0625 75.8789H9.76562L7.22656 75.332L4.88281 74.375L2.92969 73.1445L1.5625 71.7773L0.585938 70.2734L0 68.7695V66.0352L1.5625 63.1641L8.98438 51.4062L11.1328 48.125L12.5 46.4844L14.8438 44.707L16.9922 43.2031L18.5547 42.2461L22.4609 39.5117L24.0234 38.5547L27.7344 35.957L29.2969 35L34.1797 31.582L36.7188 30.3516L35.5469 29.3945L33.9844 28.1641L32.4219 26.3867L31.25 24.6094L30.4688 22.4219L30.2734 21.3281V19.5508L30.8594 16.9531L31.6406 15.3125L33.2031 13.2617L35.7422 11.0742L38.2812 9.57031L41.0156 8.47656L44.5312 7.65625L46.875 7.38281ZM47.0703 12.8516L44.5312 13.3984L42.1875 14.3555L40.4297 15.5859L39.2578 16.9531L38.4766 18.3203L38.0859 19.6875V20.918L38.6719 22.832L39.8438 24.4727L41.4062 25.8398L43.3594 26.7969L45.3125 27.4805L46.6797 27.7539H50.7812L53.3203 27.207L55.4688 26.25L56.8359 25.4297L58.2031 24.0625L59.1797 22.4219L59.5703 21.0547V19.5508L58.9844 17.7734L57.8125 16.1328L56.0547 14.7656L54.2969 13.8086L52.1484 13.125L50.5859 12.8516H47.0703ZM46.6797 33.3594L43.75 33.9062L41.0156 34.8633L39.2578 35.8203L37.8906 36.9141L36.5234 38.1445L35.1562 40.0586L34.5703 41.6992L34.375 42.9297V67.1289L34.5703 67.2656H62.6953L63.2812 67.1289V55.3711L56.8359 50.8594L55.2734 49.9023L50.9766 46.8945H50.5859L50.1953 46.3477L49.4141 45.6641L49.0234 45.1172V43.75L49.8047 42.6562L50.7812 42.1094L51.7578 41.8359H53.7109L55.2734 42.3828L58.7891 44.8438L60.3516 45.8008L64.2578 48.5352L65.8203 49.4922L69.9219 52.3633H70.3125L70.5078 52.7734L72.0703 53.7305L73.4375 54.6875L76.1719 55.6445L94.5312 60.4297L98.8281 61.5234H100.586L102.539 60.8398L103.711 59.6094L103.906 59.1992V57.9688L103.32 56.875L101.758 55.918L95.1172 54.1406L79.8828 50.1758L77.9297 49.3555L60.5469 37.1875L58.9844 36.2305L57.2266 35.1367L54.4922 34.043L51.9531 33.4961L50.9766 33.3594H46.6797ZM26.3672 44.5703L24.8047 45.5273L18.5547 49.9023L16.7969 52.5L14.2578 56.6016L10.7422 62.0703L8.00781 66.4453L7.8125 66.9922V68.2227L8.78906 69.5898L10.7422 70.4102L12.5 70.5469L14.2578 70.1367L15.2344 69.5898L16.7969 67.6758L19.3359 64.3945L21.0938 62.207L23.6328 58.9258L26.3672 55.5078L26.5625 55.0977L26.7578 44.8438L26.3672 44.5703ZM165.234 70.6836L162.891 71.0938L160.938 71.9141L159.375 73.0078L158.398 74.375L158.008 75.7422V79.5703L158.594 80.8008L159.961 81.6211L161.523 82.0312L163.281 81.8945L164.453 81.4844L165.625 80.6641L166.016 79.707V70.6836H165.234ZM173.828 71.0938L173.633 80.2539L173.047 81.8945L171.484 84.082V84.6289L180.469 86.1328L181.641 86.2695H187.891L189.844 85.7227L191.406 84.6289L191.992 83.3984L192.188 82.7148V79.0234L191.797 78.4766L191.406 78.3398L187.5 77.9297L184.961 77.2461L183.008 76.2891L182.031 75.7422L179.883 73.8281L178.125 72.5977L175.586 71.5039L173.828 71.0938ZM161.719 88.5938L160.547 89.2773L157.812 90.3711L155.469 91.0547L152.344 91.6016L147.07 91.875L130.273 92.0117L127.148 92.5586L124.414 93.5156L122.656 94.4727L122.07 94.7461V95.0195L121.289 95.293L119.336 97.207L117.969 99.1211L117.188 101.445V104.043L117.773 105.957L118.945 108.008L121.094 110.605L121.484 111.289L121.289 112.656L119.336 117.168L118.75 118.535L118.945 119.766L121.094 125.234L122.07 126.465L123.438 127.012L125.391 127.148L126.953 126.602L128.125 125.645L128.32 124.141L126.758 120.723V119.355L127.344 118.535L129.102 117.168L132.227 114.98L133.984 113.066L134.57 111.973L135.156 110.059V108.965L134.766 107.188V106.094L135.547 105L136.719 104.316L137.695 104.043H139.258L140.82 104.453L141.992 105.547L142.578 107.324V111.562L163.086 111.699L164.648 111.973L165.82 112.656L167.773 114.707L170.117 117.305L172.266 119.629L175.391 123.047L178.32 126.191L179.492 126.875L180.664 127.148L182.617 127.012L183.789 126.465L184.766 125.371V123.867L183.203 121.68L180.078 117.441L177.734 114.434L176.172 112.109L175.781 111.152L175.586 109.238L176.172 107.324L179.102 103.223L180.078 101.035L180.469 99.5312V95.8398L179.883 93.6523L178.906 91.7383L178.516 91.3281L165.43 89.0039L162.891 88.5938H161.719Z" fill="#CAD741"/>
<path d="M68.1641 111.152L69.9219 111.289L71.4844 111.973L72.4609 113.066V114.707L71.2891 115.938L70.1172 116.484L69.5312 116.621H67.5781L66.0156 116.074L64.8438 114.844L64.6484 113.477L65.4297 112.246L66.7969 111.426L68.1641 111.152Z" fill="#CAD741"/>
</svg>
