<svg width="32" height="32" viewBox="0 0 32 32" fill="none" xmlns="http://www.w3.org/2000/svg">
<g clip-path="url(#clip0_58_22)">
<path d="M28.7125 7.97884C28.7312 8.32508 28.7313 8.67901 28.7313 9.02525C28.7313 19.697 22.1313 32 10.0688 32C6.35 32 2.9 30.6766 0 28.3761C0.525 28.453 1.0375 28.4761 1.58125 28.4761C4.65 28.4761 7.46875 27.1988 9.725 25.0291C6.84375 24.9522 4.425 22.6285 3.59375 19.4277C4 19.5047 4.40625 19.5509 4.83125 19.5509C5.41875 19.5509 6.00625 19.4508 6.55625 19.2739C3.55 18.5275 1.3 15.2729 1.3 11.3489V11.2489C2.175 11.849 3.1875 12.226 4.2625 12.2722C2.49375 10.8257 1.3375 8.34816 1.3375 5.54749C1.3375 4.04713 1.6625 2.66987 2.23125 1.46958C5.4625 6.37076 10.3125 9.57153 15.7563 9.91777C15.6563 9.31762 15.5938 8.6944 15.5938 8.07117C15.5938 3.62395 18.5187 0 22.15 0C24.0375 0 25.7438 0.977158 26.9438 2.54677C28.425 2.20053 29.85 1.52344 31.1063 0.600144C30.6188 2.47752 29.5813 4.04713 28.225 5.04737C29.5438 4.8704 30.825 4.42414 32 3.80091C31.1062 5.4013 29.9875 6.82472 28.7125 7.97884Z" fill="#9467B5"/>
</g>
<defs>
<clipPath id="clip0_58_22">
<rect width="32" height="32" fill="white"/>
</clipPath>
</defs>
</svg>
