<?xml version="1.0" encoding="UTF-8"?>
<svg version="1.1" viewBox="0 0 2048 848" width="1724" height="714" xmlns="http://www.w3.org/2000/svg">
<path transform="translate(615,295)" d="m0 0h14l6 2-4 19-5 14-2 3h8l8 2 10 5 6 7 3 10 2 21 7 12 10 13 5 9 1 4v8l-5 6-14 5-25 3-27 1-2 3 1 5 7 12 8 22 5 23 3 29v20l-3 20-5 15-8 13-11 12-22 22-7 10-7 14-4 13-2 10v25l4 16 2 5 15 3 10 6 7 8 4 9 2 9v5l-1 1h-76l-1-3-2-26-6-23-6-16-7-14-3-5-1-5-7 19-8 15-11 13-4 4 14 5 10 9 6 10 3 10v6l-1 1h-150l-8-19-8-24-6-26-2-16v-31l3-18 4-15 6-15 9-17 10-14 12-13 15-15 17-13 18-12 20-12 25-14 18-11 12-11 7-11 5-14 3-18 1-45 1-4 1-16 2-10 2-9 7-14 7-9 10-9 14-8 21-7 18-3z" fill="#9166B2"/>
<path transform="translate(478,37)" d="m0 0h36l17 4 14 6 10 7 10 9 8 10 7 12 6 15 10 7 15 7 18 5 17 4 9 8 3 6 1 11-4 11-6 10-11 12-10 7-13 6-16 4-23 2-13 3-10 6-4 6-1 4v8l5 17 14 34-1 4-16 7-12 7-11 9-9 10-8 14-6 16-3 14-2 22-1 34-2 23-4 13-6 9-8 7-15 9-25 14-23 14-16 11h-3v-13l-3-22-5-16-8-16-9-13-9-10-14-11-14-8-17-6-5-2 2-5 11-14 14-20 15-25 12-22 11-23 10-25 12-36 3-10 13 3h20l17-2 16-5 11-7 7-8 5-11 1-5v-26l-4-18v16l-2 16-4 12-5 9-7 8-9 6-12 4-6 1h-15l-10-5-7-8-11-20-5-5-6-4-10-5-5-6-2-7v-24l6-18 8-14 11-14 14-14 14-10 16-9 19-7zm8 96 1 3z" fill="#D0DC45"/>
<path transform="translate(211,479)" d="m0 0 3 1 8 11 10 6 4 1h18l12-4 25-11 3-1h8l5 4 3 7 1 3v14l-9 17-28 42-15 24-13 25-6 18-3 19 2 17 5 16 9 19 10 15 11 14 12 13 9 9 10 8v2h-100l-20-3-17-5-15-8-12-11-9-14-5-13-3-14v-81l3-25 5-21 6-16 8-16 10-16 13-16 7-7 13-10 13-8z" fill="#D0DC45"/>
<path transform="translate(1199,189)" d="m0 0h40l1 89 4 11 7 10 9 7 8 4 3 1h18l9-4 9-6 6-7 6-12 1-5 1-88h40l1 1 1 90 5 12 9 10 9 6 8 3h17l10-4 9-7 7-8 5-12 1-90 1-1h40l1 1v162l-1 1h-40l-1-11-15 7-16 4h-19l-16-4-12-5-13-9-10-9-4 2-7 7-15 10-16 6-10 2h-19l-14-3-16-7-14-10-9-9-9-13-7-15-3-12-1-9v-85z" fill="#D0DC45"/>
<path transform="translate(897,189)" d="m0 0h23l15 4 16 8 10 8 6 5 10 13 8 16 4 13 1 6v17l-3 15-7 16-10 14-10 10-10 7-14 7-15 4-16 1-14-2-15-5-7-4-1 13-1 38h-40v-133l4-16 8-16 7-9 8-9 12-9 16-8zm7 40-8 2-10 5-8 7-6 9-4 9-1 13 2 10 6 11 8 8 10 6 10 3h12l11-4 11-8 7-9 4-8 1-4v-17l-4-10-8-11-10-7-9-4-5-1z" fill="#D0DC45"/>
<path transform="translate(1083,189)" d="m0 0h19l15 4 14 6 3 2v-12h40l1 1v162l-1 1h-40v-11l-19 8-16 3h-13l-16-3-16-7-11-8-10-9-8-10-8-15-4-12-2-13v-11l3-16 6-15 8-12 9-10 10-9 14-8 16-5zm1 41-9 4-9 6-8 9-5 11-1 3v15l4 11 8 11 11 8 10 4h16l12-5 10-9 6-8 4-9 1-4v-11l-3-10-6-10-8-8-12-7-3-1z" fill="#D0DC45"/>
<path transform="translate(1270,468)" d="m0 0h17l16 4 17 8v-12h40v164h-40v-11l-19 8-15 3h-16l-14-3-12-5-12-7-12-11-8-9-9-16-5-17-1-6v-16l3-15 7-16 10-14 11-11 10-7 12-6 13-4zm0 41-10 4-10 8-7 9-4 8-1 4v16l3 9 7 10 9 8 10 5 3 1h17l10-4 8-6 7-7 7-14 1-13-2-9-5-10-9-10-11-7-6-2z" fill="#9166B2"/>
<path transform="translate(1603,468)" d="m0 0h17l15 3 16 7 12 9 9 8 10 14 6 12 4 13 1 6v18l-2 11-1 1h-113l7 9 9 7 10 4h17l12-5 4-3 10 2 33 10-4 7-8 9-10 8-14 8-17 5-7 1h-15l-15-3-16-7-11-8-10-9-9-11-8-15-4-13-1-7v-19l4-16 8-16 8-11 11-11 14-9 11-5 11-3zm0 41-10 4-8 6-8 9v1h69l-3-5-5-5-8-6-10-4z" fill="#9166B2"/>
<path transform="translate(1086,468)" d="m0 0h17l14 3 12 5 12 7 10 9 7 7 9 14 6 14 3 15v14l-2 12-1 2h-113l6 8 8 7 8 4 4 1h16l11-4 5-4 7 1 36 11-1 4-9 10-7 7-14 9-13 5-15 3h-16l-14-3-16-7-13-9-12-12-9-14-5-10-4-16v-22l4-16 8-16 8-10 5-6 13-10 15-8 13-4zm0 41-10 4-9 6-7 9v1h69l-4-6-10-9-12-5z" fill="#9166B2"/>
<path transform="translate(827,428)" d="m0 0h40l1 1 1 50 15-7 16-4h17l14 3 15 6 13 9 13 13 9 14 6 14 3 15v90h-41l-1-91-4-9-6-9-8-7-10-5-3-1h-17l-10 4-9 7-7 8-5 11-1 8-1 84h-40z" fill="#9166B2"/>
<path transform="translate(293,419)" d="m0 0h9l16 4 16 8 14 11 7 8 9 14 5 11 4 16 1 7v16l-5 16-8 16-10 16-13 18-13 19-10 15-9 17-4 11-1 5v21l4 13 6 9 9 8 8 4 4 15 6 22 8 22v3l-6-1-15-9-11-9-13-12-13-14-11-15-10-17-6-16-2-10v-10l4-16 7-16 8-15 15-24 26-39 9-16 5-13v-16l-3-13-6-11-7-7-10-4-3-1h-12l-11 3-15 7-13 6h-15l-5-8-1-9 2-8 8-11 10-7 14-7 16-5z" fill="#9166B2"/>
<path transform="translate(1716,468)" d="m0 0h40v12l17-8 16-4h17l14 3 12 5 12 7 10 9 9 10 9 15 5 14 2 12v89h-41l-1-90-4-10-6-9-8-7-10-5-3-1h-17l-10 4-9 7-7 8-4 8-2 8-1 87h-40l-1-1v-162z" fill="#9166B2"/>
<path transform="translate(168,416)" d="m0 0h23l7 3v3l-23 11-14 9-12 9-12 11-9 9-11 15-9 16-6 14-5 16-3 19v16l3 15 5 12 7 11 5 5v15l-1 26v46l-5-3-13-12-13-14-13-18-10-18-7-16-5-15-4-18-2-19v-15l2-18 5-20 8-20 9-15 8-10 10-11 14-11 16-10 17-8 18-6z" fill="#D0DC45"/>
<path transform="translate(1384,468)" d="m0 0h40l1 1v122l11-2 10-5 10-9 6-10 3-10 1-87h41v90l-3 15-7 16-8 11-9 10-12 9-16 8-14 4-9 1h-45z" fill="#9166B2"/>
</svg>
