<?xml version="1.0" encoding="UTF-8"?>
<svg version="1.1" viewBox="0 0 2048 845" width="298" height="123" xmlns="http://www.w3.org/2000/svg">
<path transform="translate(609,294)" d="m0 0h24l1 5-7 24-2 7 13 3 10 5 7 8 3 11 1 17 5 10 8 11 8 13 3 6-1 9-7 6-8 3-19 3-32 2h-7l4 11 7 14 6 18 5 24 3 26v23l-3 17-4 12-6 12-9 12-13 13-8 7-10 12-6 10-5 12-4 15-2 14v9l3 16 4 10 15 5 10 6 7 8 6 16 1 5-3 2h-75l-2-17-3-21-6-20-7-17-9-16-6 18-9 17-11 12-3 3 11 4 11 8 6 8 4 9 1 4v7l-1 1h-149l-4-6-12-36-7-30-2-20v-16l2-19 6-23 7-17 8-14 11-15 12-13 6-7 8-7 18-14 20-13 21-12 25-14 14-9 10-9 6-8 5-11 5-23 2-55 2-18 3-12 7-14 7-9 8-8 11-7 17-7 17-4z" fill="#8C62AD"/>
<path transform="translate(481,36)" d="m0 0h28l13 2 15 5 16 9 12 11 10 14 11 23 8 6 16 7 23 6 12 4 8 7 4 6 1 3v9l-5 12-8 11-8 9-14 9-10 4-12 3-32 4-11 4-7 5-3 5-1 4v7l6 20 11 28 2 6-15 8-12 6-11 9-9 9-8 13-8 19-4 20-1 17-1 32-2 24-4 15-4 6-9 8-26 15-18 10-23 14-12 9h-3l-1-18-3-17-5-16-8-16-8-12-8-9-8-7-10-7-16-8-18-6 1-4 6-7 13-18 12-18 16-27 13-26 12-28 9-25 7-26 3-1 12 3h19l19-3 12-4 11-6 5-4 7-11 3-11 1-10v-9l-3-17-3-9 1 12v12l-3 15-5 12-6 8-9 8-12 5-10 2h-16l-8-4-7-8-6-11-5-9-6-7-12-5-6-5-4-8-1-5v-19l4-15 8-16 7-10 9-10 15-15 15-10 16-8 15-5 13-3z" fill="#CFD948"/>
<path transform="translate(210,476)" d="m0 0 5 5 6 8 8 5 5 2 16 1 15-5 21-9 6-2h10l5 4 4 11v9l-5 12-9 15-18 27-13 20-9 15-11 21-7 19-2 10v19l4 16 9 20 8 14 13 17 11 12 9 10 10 8 3 5h-102l-20-3-15-5-13-7-12-11-7-9-7-14-3-9-2-18v-62l2-25 4-22 5-16 8-19 13-21 8-10 11-12 10-9 22-14z" fill="#CFD948"/>
<path transform="translate(1196,189)" d="m0 0h40l1 1 1 87 3 10 8 11 9 7 9 4 5 1h13l13-5 10-9 6-8 3-7 1-7 1-85h40l1 1v81l2 12 4 8 9 10 9 6 9 3h15l12-5 9-7 7-10 3-7 1-7 1-85h41v161l-3 1h-36l-3-11-16 8-15 3h-20l-16-4-16-8-13-11-4-4-4 1-4 5-15 11-15 7-16 3h-17l-15-3-13-5-13-9-14-14-7-11-6-12-4-14-1-9z" fill="#CFD948"/>
<path transform="translate(900,188)" d="m0 0h14l14 2 13 5 14 9 10 9 9 11 6 10 6 16 2 10v19l-4 16-5 12-10 14-8 9-14 10-12 6-11 3-14 2-16-1-12-3-12-5-4-2 1 50-2 1h-39l-1-1v-120l2-18 5-15 8-14 11-12 10-9 12-7 14-5zm-1 40-11 4-9 7-7 9-5 11-1 5v11l4 11 7 11 9 8 11 5 5 1h9l10-3 12-7 9-10 5-11 1-14-3-12-6-10-4-5-10-7-7-3-5-1z" fill="#CFD948"/>
<path transform="translate(1088,188)" d="m0 0 17 1 11 3 10 5 6 2v-9l1-1h39l1 1v159l-2 2h-37l-2-1-1-9-6 2-11 5-18 3h-12l-17-3-12-5-11-7-10-9-8-9-8-13-5-12-3-11-1-13 2-16 5-15 7-13 9-11 8-8 14-9 12-5 11-3zm-3 40-10 3-10 6-8 10-5 10-2 7v13l4 11 7 9 7 7 10 5 7 2h12l11-4 9-6 7-7 6-11 2-10v-7l-4-13-7-11-9-8-11-5-6-1z" fill="#CFD948"/>
<path transform="translate(1270,466)" d="m0 0h13l15 3 19 9 1-11 39-1 1 1v162l-39 1-1-1-2-10-10 4-9 4-9 2h-24l-12-3-12-5-12-8-11-10-9-12-8-16-4-13-1-6v-16l3-14 7-16 7-11 9-10 9-8 16-9 16-5zm0 40-11 4-11 8-7 9-5 12v17l4 10 6 9 9 8 10 5 4 1h15l10-4 9-6 8-9 5-10 2-10-1-10-5-12-8-10-11-8-11-4z" fill="#8C62AD"/>
<path transform="translate(1086,466)" d="m0 0h12l17 3 12 5 12 7 12 11 7 8 9 16 5 13 2 11v14l-2 13-1 1h-113l6 8 8 7 8 4 10 2 12-1 8-4 4-3h10l18 5 17 6v3l-7 8-8 8-14 9-11 5-15 4h-24l-15-4-17-9-13-11-10-12-10-19-4-17v-18l4-16 5-12 8-12 9-10 12-10 15-8 14-4zm0 40-11 4-15 11-3 6h69l-2-5-7-7-11-7-7-2z" fill="#8C62AD"/>
<path transform="translate(1601,466)" d="m0 0h14l17 3 16 7 12 9 10 9 9 13 8 16 3 12v25l-2 6-1 2h-112l4 7 8 7 10 5 10 2 11-1 14-7h9l19 6 15 5v4l-16 16-14 9-16 6-9 2h-23l-12-3-12-5-11-7-12-11-11-14-8-17-3-11-1-15 2-16 6-16 7-12 11-12 10-9 14-8 13-5zm1 40-9 3-11 8-6 5-2 5h69l-2-5-9-8-10-6-6-2z" fill="#8C62AD"/>
<path transform="translate(825,426)" d="m0 0h39l3 1v48l-1 3 18-8 11-3 16-1 14 2 15 5 13 8 10 8 9 10 9 16 5 13 2 12 1 88-1 1h-40l-1-2v-83l-2-9-5-10-6-7-10-7-12-4h-11l-11 4-9 7-7 8-6 12-1 18-1 73-38 1-2-1-1-3z" fill="#8C62AD"/>
<path transform="translate(289,418)" d="m0 0h13l17 4 12 6 15 11 9 10 8 13 5 11 4 14 1 6v19l-3 12-9 19-9 14-11 16-13 18-7 10-13 22-6 14-2 8v20l4 13 7 11 5 4 9 5 3 5 9 32 8 23v3l-3 1-9-5-16-12-10-9-8-7-12-13-11-15-9-16-6-14-3-12v-12l7-21 8-16 13-22 8-12 13-19 12-19 10-18 3-12v-13l-3-14-5-10-4-5-10-6-8-2h-8l-12 3-29 12-12 3-5-3-4-10v-10l4-8 5-6 13-9 14-7z" fill="#8C62AD"/>
<path transform="translate(1790,466)" d="m0 0 17 1 13 3 9 4 12 7 13 12 8 10 7 12 5 14 1 5 1 21v74h-40l-1-5-1-85-4-10-7-9-8-7-8-4-7-2h-12l-9 3-10 7-7 7-7 14-1 14v76l-1 1-39 1-2-3v-158l1-2h40v11l10-4 10-5 8-2z" fill="#8C62AD"/>
<path transform="translate(170,414)" d="m0 0h25l3 2v3l-23 12-16 10-10 8-13 12-9 9-12 17-11 21-7 21-3 14-1 15 2 16 5 14 6 11 6 8 1 2v21l-1 64-5-2-14-14-7-8-10-12-10-15-7-12-10-24-5-19-3-19v-28l4-23 5-16 10-21 10-14 14-15 14-11 15-9 19-9 25-7z" fill="#CFD948"/>
<path transform="translate(1382,467)" d="m0 0h41v123l13-4 13-8 8-9 4-8 1-3 1-91h41l1 1v64l-1 25-3 15-8 16-7 10-10 11-13 9-11 5-13 4-12 2-23 1h-20l-2-2-1-10v-35z" fill="#8C62AD"/>
</svg>
